<?xml version="1.0" standalone="no"?>
<!DOCTYPE svg PUBLIC "-//W3C//DTD SVG 20010904//EN"
 "http://www.w3.org/TR/2001/REC-SVG-20010904/DTD/svg10.dtd">
<svg version="1.0" xmlns="http://www.w3.org/2000/svg"
 width="794.000000pt" height="794.000000pt" viewBox="0 0 794.000000 794.000000"
 preserveAspectRatio="xMidYMid meet">
<metadata>
Created by potrace 1.14, written by Peter Selinger 2001-2017
</metadata>
<g transform="translate(0.000000,794.000000) scale(0.100000,-0.100000)"
fill="#000000" stroke="none">
<path d="M1340 7133 c1 -435 26 -921 65 -1253 180 -1518 783 -2733 1725 -3476
280 -220 730 -465 831 -451 96 13 391 163 604 307 264 179 591 480 790 725
808 996 1195 2298 1195 4023 0 155 -1 282 -3 282 -2 0 -77 -33 -168 -73 -589
-264 -1106 -419 -1306 -392 -266 35 -640 153 -1056 332 l-68 30 -187 -77
c-210 -87 -526 -196 -676 -234 -177 -46 -305 -60 -415 -46 -246 31 -637 159
-1110 366 -118 52 -215 94 -217 94 -2 0 -4 -71 -4 -157z m2757 -517 c286 -111
594 -203 813 -242 257 -46 542 -4 985 145 l178 59 -7 -145 c-12 -257 -45 -559
-92 -838 -223 -1329 -817 -2371 -1685 -2954 -172 -116 -323 -195 -357 -186
-39 10 -211 108 -335 191 -171 116 -290 216 -468 393 -316 317 -548 647 -754
1076 -317 657 -491 1406 -551 2359 -5 90 -4 108 7 103 71 -28 399 -132 494
-156 251 -63 447 -79 630 -52 209 32 539 129 845 250 69 27 133 49 142 50 9 1
79 -23 155 -53z"/>
<path d="M3628 6058 c-163 -205 -395 -499 -517 -653 l-220 -280 170 -3 c153
-2 170 -4 165 -19 -4 -9 -142 -223 -308 -477 -166 -253 -317 -486 -336 -516
l-35 -55 74 70 c41 38 312 301 602 585 l528 515 -199 5 -200 5 265 545 c263
542 314 650 309 650 -1 0 -136 -168 -298 -372z"/>
<path d="M5057 5583 c-361 -455 -857 -1084 -857 -1088 0 -3 77 -5 170 -5 94 0
170 -3 170 -6 0 -3 -134 -211 -299 -462 -164 -252 -319 -491 -346 -532 l-47
-74 190 184 c105 102 377 367 604 590 l414 405 -198 3 c-109 1 -198 4 -198 6
0 4 510 1058 554 1144 14 28 24 52 21 52 -3 0 -83 -98 -178 -217z"/>
<path d="M6010 1299 c-78 -13 -173 -62 -215 -111 -100 -117 -108 -338 -16
-449 71 -86 215 -128 375 -110 49 6 90 12 91 13 1 2 7 28 12 59 l9 56 -55 -14
c-34 -9 -86 -14 -132 -11 -63 2 -84 8 -124 33 -68 43 -90 88 -90 191 0 72 3
86 30 130 19 29 49 60 78 78 41 25 61 30 130 34 55 2 98 -2 130 -12 43 -13 48
-13 43 1 -3 8 -6 34 -6 58 0 40 -2 43 -32 48 -70 13 -175 15 -228 6z"/>
<path d="M1040 1183 c0 -125 -17 -479 -25 -525 l-4 -28 74 0 75 0 0 89 c0 100
17 472 25 539 l5 42 -75 0 -75 0 0 -117z"/>
<path d="M1358 1197 c-43 -56 -97 -127 -121 -157 l-44 -55 109 -155 c61 -85
115 -165 121 -177 10 -22 14 -23 171 -23 l162 0 53 115 54 116 131 -3 131 -3
40 -112 40 -113 76 0 76 0 -35 93 c-19 50 -74 200 -122 332 l-88 240 -90 3
c-87 3 -91 2 -97 -20 -12 -37 -318 -628 -326 -628 -10 0 -249 322 -249 335 0
5 53 75 116 155 64 80 118 148 120 153 3 4 -30 7 -73 7 l-78 0 -77 -103z m697
-111 c19 -53 35 -101 35 -106 0 -6 -40 -10 -90 -10 -49 0 -90 2 -90 4 0 12
101 218 105 214 2 -2 20 -48 40 -102z"/>
<path d="M2470 1259 c0 -76 -20 -464 -28 -548 l-8 -81 71 0 72 0 7 258 c4 141
10 267 13 280 5 21 10 22 93 22 107 0 140 -18 140 -79 0 -70 -55 -111 -150
-111 l-50 0 46 -92 c26 -51 64 -133 85 -183 l38 -90 75 -3 c42 -2 76 0 76 4 0
4 -33 68 -74 143 -41 75 -76 142 -78 149 -2 8 13 19 36 27 86 30 128 85 130
168 2 74 -18 113 -73 145 -45 26 -51 27 -233 31 l-188 3 0 -43z"/>
<path d="M3030 1261 c0 -22 -3 -46 -6 -55 -5 -14 7 -16 100 -16 l106 0 0 -80
c0 -91 -18 -410 -25 -452 l-4 -28 74 0 75 0 0 86 c0 97 18 417 26 452 4 21 9
22 104 22 l100 0 0 39 c0 22 3 46 6 55 6 14 -23 16 -275 16 l-281 0 0 -39z"/>
<path d="M3885 1278 c-4 -13 -79 -162 -166 -331 -88 -170 -159 -310 -159 -313
0 -2 35 -4 78 -4 l78 0 53 115 54 116 131 -3 131 -3 40 -112 40 -113 76 0 76
0 -35 93 c-19 50 -74 200 -122 332 l-88 240 -90 3 c-87 3 -91 2 -97 -20z m130
-192 c19 -53 35 -101 35 -106 0 -6 -40 -10 -90 -10 -49 0 -90 2 -90 4 0 12
101 218 105 214 2 -2 20 -48 40 -102z"/>
<path d="M4420 1253 c0 -88 -20 -567 -25 -595 l-4 -28 68 0 68 0 6 264 c4 145
10 271 13 279 7 19 97 30 149 18 46 -11 65 -33 65 -74 0 -63 -46 -97 -131 -97
l-51 0 7 -47 c4 -27 9 -50 12 -53 2 -3 36 -4 74 -4 138 3 223 82 223 208 0 75
-23 120 -74 151 -31 18 -56 20 -217 23 l-183 4 0 -49z"/>
<path d="M5000 1093 c-22 -313 -21 -329 31 -387 47 -54 123 -78 244 -79 159
-1 266 45 301 128 7 19 20 128 29 256 8 123 17 239 19 257 l5 32 -75 0 -74 0
0 -63 c0 -121 -30 -391 -48 -427 -26 -53 -74 -80 -141 -80 -74 0 -121 24 -145
74 -18 37 -18 49 -7 245 7 113 14 216 17 229 4 21 2 22 -69 22 l-73 0 -14
-207z"/>
<path d="M6416 1138 c-8 -199 -25 -455 -31 -485 l-5 -23 240 0 240 0 0 44 c0
24 2 50 5 58 4 11 -26 12 -166 10 l-170 -3 7 83 c3 46 9 85 11 88 2 2 67 6
144 8 l139 4 0 33 c0 18 3 41 7 51 6 16 -1 17 -82 11 -49 -3 -115 -4 -148 0
l-59 6 4 78 c1 42 7 81 11 86 5 4 78 8 163 7 l154 0 0 30 c0 17 3 41 6 54 l6
22 -234 0 -235 0 -7 -162z"/>
</g>
</svg>
